%TF.GenerationSoftware,KiCad,Pcbnew,(6.0.10)*%
%TF.CreationDate,2023-02-17T10:00:27-08:00*%
%TF.ProjectId,exercise2,65786572-6369-4736-9532-2e6b69636164,rev?*%
%TF.SameCoordinates,Original*%
%TF.FileFunction,Legend,Top*%
%TF.FilePolarity,Positive*%
%FSLAX46Y46*%
G04 Gerber Fmt 4.6, Leading zero omitted, Abs format (unit mm)*
G04 Created by KiCad (PCBNEW (6.0.10)) date 2023-02-17 10:00:27*
%MOMM*%
%LPD*%
G01*
G04 APERTURE LIST*
%ADD10C,0.150000*%
%ADD11C,0.120000*%
G04 APERTURE END LIST*
D10*
%TO.C,U1*%
X132217380Y-76531904D02*
X133026904Y-76531904D01*
X133122142Y-76484285D01*
X133169761Y-76436666D01*
X133217380Y-76341428D01*
X133217380Y-76150952D01*
X133169761Y-76055714D01*
X133122142Y-76008095D01*
X133026904Y-75960476D01*
X132217380Y-75960476D01*
X133217380Y-74960476D02*
X133217380Y-75531904D01*
X133217380Y-75246190D02*
X132217380Y-75246190D01*
X132360238Y-75341428D01*
X132455476Y-75436666D01*
X132503095Y-75531904D01*
%TO.C,R4*%
X153141589Y-79477380D02*
X152808256Y-79001190D01*
X152570160Y-79477380D02*
X152570160Y-78477380D01*
X152951113Y-78477380D01*
X153046351Y-78525000D01*
X153093970Y-78572619D01*
X153141589Y-78667857D01*
X153141589Y-78810714D01*
X153093970Y-78905952D01*
X153046351Y-78953571D01*
X152951113Y-79001190D01*
X152570160Y-79001190D01*
X153998732Y-78810714D02*
X153998732Y-79477380D01*
X153760636Y-78429761D02*
X153522541Y-79144047D01*
X154141589Y-79144047D01*
%TO.C,R3*%
X137428333Y-85162380D02*
X137095000Y-84686190D01*
X136856904Y-85162380D02*
X136856904Y-84162380D01*
X137237857Y-84162380D01*
X137333095Y-84210000D01*
X137380714Y-84257619D01*
X137428333Y-84352857D01*
X137428333Y-84495714D01*
X137380714Y-84590952D01*
X137333095Y-84638571D01*
X137237857Y-84686190D01*
X136856904Y-84686190D01*
X137761666Y-84162380D02*
X138380714Y-84162380D01*
X138047380Y-84543333D01*
X138190238Y-84543333D01*
X138285476Y-84590952D01*
X138333095Y-84638571D01*
X138380714Y-84733809D01*
X138380714Y-84971904D01*
X138333095Y-85067142D01*
X138285476Y-85114761D01*
X138190238Y-85162380D01*
X137904523Y-85162380D01*
X137809285Y-85114761D01*
X137761666Y-85067142D01*
%TO.C,R2*%
X118667461Y-78952380D02*
X118334128Y-78476190D01*
X118096032Y-78952380D02*
X118096032Y-77952380D01*
X118476985Y-77952380D01*
X118572223Y-78000000D01*
X118619842Y-78047619D01*
X118667461Y-78142857D01*
X118667461Y-78285714D01*
X118619842Y-78380952D01*
X118572223Y-78428571D01*
X118476985Y-78476190D01*
X118096032Y-78476190D01*
X119048413Y-78047619D02*
X119096032Y-78000000D01*
X119191270Y-77952380D01*
X119429366Y-77952380D01*
X119524604Y-78000000D01*
X119572223Y-78047619D01*
X119619842Y-78142857D01*
X119619842Y-78238095D01*
X119572223Y-78380952D01*
X119000794Y-78952380D01*
X119619842Y-78952380D01*
%TO.C,R1*%
X119740397Y-94202380D02*
X119407064Y-93726190D01*
X119168968Y-94202380D02*
X119168968Y-93202380D01*
X119549921Y-93202380D01*
X119645159Y-93250000D01*
X119692778Y-93297619D01*
X119740397Y-93392857D01*
X119740397Y-93535714D01*
X119692778Y-93630952D01*
X119645159Y-93678571D01*
X119549921Y-93726190D01*
X119168968Y-93726190D01*
X120692778Y-94202380D02*
X120121349Y-94202380D01*
X120407064Y-94202380D02*
X120407064Y-93202380D01*
X120311825Y-93345238D01*
X120216587Y-93440476D01*
X120121349Y-93488095D01*
%TO.C,J1*%
X126452380Y-68913333D02*
X127166666Y-68913333D01*
X127309523Y-68960952D01*
X127404761Y-69056190D01*
X127452380Y-69199047D01*
X127452380Y-69294285D01*
X127452380Y-67913333D02*
X127452380Y-68484761D01*
X127452380Y-68199047D02*
X126452380Y-68199047D01*
X126595238Y-68294285D01*
X126690476Y-68389523D01*
X126738095Y-68484761D01*
%TO.C,D2*%
X152061904Y-68872380D02*
X152061904Y-67872380D01*
X152300000Y-67872380D01*
X152442857Y-67920000D01*
X152538095Y-68015238D01*
X152585714Y-68110476D01*
X152633333Y-68300952D01*
X152633333Y-68443809D01*
X152585714Y-68634285D01*
X152538095Y-68729523D01*
X152442857Y-68824761D01*
X152300000Y-68872380D01*
X152061904Y-68872380D01*
X153014285Y-67967619D02*
X153061904Y-67920000D01*
X153157142Y-67872380D01*
X153395238Y-67872380D01*
X153490476Y-67920000D01*
X153538095Y-67967619D01*
X153585714Y-68062857D01*
X153585714Y-68158095D01*
X153538095Y-68300952D01*
X152966666Y-68872380D01*
X153585714Y-68872380D01*
%TO.C,D1*%
X136904404Y-93712380D02*
X136904404Y-92712380D01*
X137142500Y-92712380D01*
X137285357Y-92760000D01*
X137380595Y-92855238D01*
X137428214Y-92950476D01*
X137475833Y-93140952D01*
X137475833Y-93283809D01*
X137428214Y-93474285D01*
X137380595Y-93569523D01*
X137285357Y-93664761D01*
X137142500Y-93712380D01*
X136904404Y-93712380D01*
X138428214Y-93712380D02*
X137856785Y-93712380D01*
X138142500Y-93712380D02*
X138142500Y-92712380D01*
X138047261Y-92855238D01*
X137952023Y-92950476D01*
X137856785Y-92998095D01*
%TO.C,C2*%
X148728394Y-70360406D02*
X148776013Y-70408025D01*
X148823632Y-70550882D01*
X148823632Y-70646120D01*
X148776013Y-70788978D01*
X148680775Y-70884216D01*
X148585537Y-70931835D01*
X148395061Y-70979454D01*
X148252204Y-70979454D01*
X148061728Y-70931835D01*
X147966490Y-70884216D01*
X147871252Y-70788978D01*
X147823632Y-70646120D01*
X147823632Y-70550882D01*
X147871252Y-70408025D01*
X147918871Y-70360406D01*
X147918871Y-69979454D02*
X147871252Y-69931835D01*
X147823632Y-69836597D01*
X147823632Y-69598501D01*
X147871252Y-69503263D01*
X147918871Y-69455644D01*
X148014109Y-69408025D01*
X148109347Y-69408025D01*
X148252204Y-69455644D01*
X148823632Y-70027073D01*
X148823632Y-69408025D01*
%TO.C,C1*%
X126648333Y-86242142D02*
X126600714Y-86289761D01*
X126457857Y-86337380D01*
X126362619Y-86337380D01*
X126219761Y-86289761D01*
X126124523Y-86194523D01*
X126076904Y-86099285D01*
X126029285Y-85908809D01*
X126029285Y-85765952D01*
X126076904Y-85575476D01*
X126124523Y-85480238D01*
X126219761Y-85385000D01*
X126362619Y-85337380D01*
X126457857Y-85337380D01*
X126600714Y-85385000D01*
X126648333Y-85432619D01*
X127600714Y-86337380D02*
X127029285Y-86337380D01*
X127315000Y-86337380D02*
X127315000Y-85337380D01*
X127219761Y-85480238D01*
X127124523Y-85575476D01*
X127029285Y-85623095D01*
D11*
%TO.C,U1*%
X133605000Y-75770000D02*
X133605000Y-73820000D01*
X133605000Y-75770000D02*
X133605000Y-79220000D01*
X138725000Y-75770000D02*
X138725000Y-77720000D01*
X138725000Y-75770000D02*
X138725000Y-73820000D01*
%TO.C,R4*%
X153081192Y-79940000D02*
X153535320Y-79940000D01*
X153081192Y-81410000D02*
X153535320Y-81410000D01*
%TO.C,R3*%
X152172936Y-90705000D02*
X152627064Y-90705000D01*
X152172936Y-92175000D02*
X152627064Y-92175000D01*
%TO.C,R2*%
X118607064Y-79415000D02*
X119061192Y-79415000D01*
X118607064Y-80885000D02*
X119061192Y-80885000D01*
%TO.C,R1*%
X120134128Y-92835000D02*
X119680000Y-92835000D01*
X120134128Y-91365000D02*
X119680000Y-91365000D01*
%TO.C,J1*%
X125730000Y-73660000D02*
X125730000Y-63500000D01*
X118110000Y-63500000D02*
X118110000Y-73660000D01*
X119380000Y-73660000D02*
X119380000Y-63500000D01*
X118110000Y-73660000D02*
X125730000Y-73660000D01*
X125730000Y-63500000D02*
X118110000Y-63500000D01*
%TO.C,D2*%
X150340000Y-71375000D02*
X154400000Y-71375000D01*
X150340000Y-69105000D02*
X150340000Y-71375000D01*
X154400000Y-69105000D02*
X150340000Y-69105000D01*
%TO.C,D1*%
X140102500Y-90305000D02*
X136042500Y-90305000D01*
X140102500Y-92575000D02*
X140102500Y-90305000D01*
X136042500Y-92575000D02*
X140102500Y-92575000D01*
%TO.C,C2*%
X147426252Y-69932488D02*
X147426252Y-70454992D01*
X145956252Y-69932488D02*
X145956252Y-70454992D01*
%TO.C,C1*%
X124330000Y-86700000D02*
X124330000Y-88570000D01*
X128415000Y-86700000D02*
X124330000Y-86700000D01*
X124330000Y-88570000D02*
X128415000Y-88570000D01*
%TD*%
M02*
