%TF.GenerationSoftware,KiCad,Pcbnew,(6.0.10)*%
%TF.CreationDate,2023-02-17T10:00:27-08:00*%
%TF.ProjectId,exercise2,65786572-6369-4736-9532-2e6b69636164,rev?*%
%TF.SameCoordinates,Original*%
%TF.FileFunction,Copper,L2,Bot*%
%TF.FilePolarity,Positive*%
%FSLAX46Y46*%
G04 Gerber Fmt 4.6, Leading zero omitted, Abs format (unit mm)*
G04 Created by KiCad (PCBNEW (6.0.10)) date 2023-02-17 10:00:27*
%MOMM*%
%LPD*%
G01*
G04 APERTURE LIST*
%TA.AperFunction,ComponentPad*%
%ADD10C,3.000000*%
%TD*%
%TA.AperFunction,ComponentPad*%
%ADD11R,3.000000X3.000000*%
%TD*%
%TA.AperFunction,ViaPad*%
%ADD12C,0.800000*%
%TD*%
%TA.AperFunction,Conductor*%
%ADD13C,0.508000*%
%TD*%
%TA.AperFunction,Conductor*%
%ADD14C,0.254000*%
%TD*%
G04 APERTURE END LIST*
D10*
%TO.P,J1,2,Pin_2*%
%TO.N,GND*%
X121920000Y-71120000D03*
D11*
%TO.P,J1,1,Pin_1*%
%TO.N,+9V*%
X121920000Y-66040000D03*
%TD*%
D12*
%TO.N,+9V*%
X134620000Y-68580000D03*
X139700000Y-73660000D03*
%TO.N,GND*%
X147320000Y-81280000D03*
X129540000Y-78740000D03*
%TO.N,/pin_3*%
X137160000Y-83820000D03*
%TO.N,/pin_2*%
X134620000Y-86360000D03*
X142240000Y-81280000D03*
X139700000Y-68580000D03*
X142240000Y-86360000D03*
X132080000Y-83820000D03*
X127000000Y-81280000D03*
%TO.N,/pin_7*%
X132080000Y-68580000D03*
X127000000Y-76200000D03*
%TO.N,/pin_3*%
X144780000Y-83820000D03*
%TD*%
D13*
%TO.N,+9V*%
X137160000Y-68580000D02*
X139700000Y-71120000D01*
X134620000Y-68580000D02*
X137160000Y-68580000D01*
X139700000Y-71120000D02*
X139700000Y-73660000D01*
%TO.N,GND*%
X147320000Y-82487739D02*
X147320000Y-81280000D01*
X145133739Y-84674000D02*
X147320000Y-82487739D01*
X135474000Y-84674000D02*
X145133739Y-84674000D01*
X129540000Y-78740000D02*
X135474000Y-84674000D01*
D14*
%TO.N,/pin_3*%
X144780000Y-83820000D02*
X137160000Y-83820000D01*
%TO.N,/pin_2*%
X142240000Y-86360000D02*
X134620000Y-86360000D01*
X139700000Y-68580000D02*
X142240000Y-71120000D01*
X142240000Y-71120000D02*
X142240000Y-81280000D01*
X129540000Y-83820000D02*
X132080000Y-83820000D01*
X127000000Y-81280000D02*
X129540000Y-83820000D01*
%TO.N,/pin_7*%
X127000000Y-76200000D02*
X132080000Y-71120000D01*
X132080000Y-71120000D02*
X132080000Y-68580000D01*
%TD*%
M02*
